<?xml version="1.0" standalone="no"?>
<!DOCTYPE svg PUBLIC "-//W3C//DTD SVG 20010904//EN"
 "http://www.w3.org/TR/2001/REC-SVG-20010904/DTD/svg10.dtd">
<svg version="1.0" xmlns="http://www.w3.org/2000/svg"
 width="50" height="50" viewBox="0 0 428.000000 500.000000"
 preserveAspectRatio="xMidYMid meet">

<g transform="translate(0.000000,500.000000) scale(0.100000,-0.100000)"
fill="#000000" stroke="none">
<path d="M770 2500 l0 -480 1240 0 1240 0 0 480 0 480 -1240 0 -1240 0 0 -480z
m2450 0 l0 -450 -1210 0 -1210 0 0 450 0 450 1210 0 1210 0 0 -450z"/>
<path d="M850 2500 l0 -390 820 0 820 0 0 390 0 390 -820 0 -820 0 0 -390z
m1337 153 c-2 -10 -24 -80 -48 -155 -34 -108 -47 -138 -60 -138 -15 0 -16 5
-9 28 5 15 28 84 50 155 29 91 45 127 57 127 10 0 14 -6 10 -17z m180 -138
c-39 -118 -56 -155 -68 -155 -15 0 -9 23 34 155 39 118 56 155 68 155 15 0 9
-23 -34 -155z m-963 104 c29 -22 33 -55 13 -84 -12 -15 -11 -21 5 -37 25 -25
23 -64 -7 -93 -21 -22 -33 -25 -100 -25 l-75 0 0 130 0 130 69 0 c54 0 74 -4
95 -21z m274 5 c13 -9 27 -27 32 -40 12 -30 -6 -81 -31 -89 -25 -8 -24 -13 11
-68 27 -43 28 -47 10 -47 -13 0 -32 18 -52 50 -26 39 -39 50 -60 50 -27 0 -28
-2 -28 -50 0 -43 -3 -50 -20 -50 -19 0 -20 7 -20 130 l0 130 68 0 c46 0 75 -5
90 -16z m162 -114 c0 -109 -2 -130 -15 -130 -13 0 -15 21 -15 130 0 109 2 130
15 130 13 0 15 -21 15 -130z m138 47 c4 -20 -25 -34 -40 -19 -15 15 -1 44 19
40 10 -2 19 -11 21 -21z m0 -150 c4 -20 -25 -34 -40 -19 -15 15 -1 44 19 40
10 -2 19 -11 21 -21z"/>
<path d="M1280 2570 c0 -40 0 -40 39 -40 54 0 71 8 71 34 0 33 -19 46 -67 46
l-43 0 0 -40z"/>
<path d="M1280 2455 l0 -45 41 0 c53 0 79 15 79 45 0 30 -26 45 -79 45 l-41 0
0 -45z"/>
<path d="M1560 2560 l0 -50 44 0 c48 0 76 19 76 50 0 27 -38 50 -82 50 l-38 0
0 -50z"/>
<path d="M2572 2628 c3 -7 24 -66 49 -130 l44 -118 36 0 36 0 47 123 c25 67
46 126 46 130 0 5 -17 7 -37 5 -36 -3 -37 -5 -64 -78 -30 -83 -24 -86 -64 28
-18 51 -20 52 -58 52 -27 0 -38 -4 -35 -12z"/>
</g>
</svg>
